# xmcd
# Copyright (C) 1995-1998 Ti Kan
#
# Track frame offsets:
#       150
#       16926
#       37563
#       57961
#       99957
#       118940
#       138358
#       170950
#       186473
#       208009
#       234792
#       255041
#
# Disc length: 3699 seconds
#
# Revision: 0
# Processed by: cddbd v1.5.2PL0 Copyright (c) Steve Scherf et al.
# Submitted via: CD-Import v1.0
#
DISCID=960e710c
DTITLE=Aydin Yildrim - 120928 Radyo Denge Roj
DYEAR=1900
DGENRE=
TTITLE0=120928 Denge Roj 1
TTITLE1=120928 Denge Roj 2
TTITLE2=120928 Denge Roj 3
TTITLE3=120928 Denge Roj 4
TTITLE4=120928 Denge Roj 5
TTITLE5=120928 Denge Roj 6
TTITLE6=120928 Denge Roj 7
TTITLE7=120928 Denge Roj 8
TTITLE8=120928 Denge Roj 9
TTITLE9=120928 Denge Roj 10
TTITLE10=120928 Denge Roj 11
TTITLE11=120928 Denge Roj 12
EXTD=
EXTT0=
EXTT1=
EXTT2=
EXTT3=
EXTT4=
EXTT5=
EXTT6=
EXTT7=
EXTT8=
EXTT9=
EXTT10=
EXTT11=
PLAYORDER=
